#N canvas 76 189 574 459 10;
#X obj 78 348 sendOSC;
#X msg 334 331 send /test \$1;
#X msg 105 139 disconnect;
#X msg 63 82 connect localhost 12001;
#X msg 208 185 send /test2 \$1;
#X obj 256 98 tgl 15 0 empty empty empty 17 7 0 10 -262144 -1 -1 1
1;
#X obj 414 182 bng 15 250 50 0 empty empty empty 17 7 0 10 -262144
-1 -1;
#X obj 443 182 bng 15 250 50 0 empty empty empty 17 7 0 10 -262144
-1 -1;
#X obj 414 137 metro 500;
#X floatatom 465 99 5 0 0 0 - - -;
#X obj 414 215 counter;
#X floatatom 395 270 5 0 0 0 - - -;
#X msg 345 120 0;
#X msg 414 98 1;
#X obj 344 82 tgl 15 0 empty empty empty 17 7 0 10 -262144 -1 -1 1
1;
#X obj 256 54 select 855;
#X msg 256 133 855;
#X connect 1 0 0 0;
#X connect 2 0 0 0;
#X connect 3 0 0 0;
#X connect 4 0 0 0;
#X connect 5 0 16 0;
#X connect 6 0 10 0;
#X connect 7 0 10 3;
#X connect 8 0 6 0;
#X connect 9 0 8 1;
#X connect 10 0 11 0;
#X connect 11 0 1 0;
#X connect 12 0 8 0;
#X connect 13 0 8 0;
#X connect 14 0 8 0;
#X connect 15 0 5 0;
#X connect 16 0 4 0;
